<svg width="150" height="54" viewBox="0 0 150 54" fill="none" xmlns="http://www.w3.org/2000/svg">
<rect width="150" height="54" fill="white"/>
<g clip-path="url(#clip0_87_29)">
<mask id="mask0_87_29" style="mask-type:luminance" maskUnits="userSpaceOnUse" x="15" y="10" width="120" height="34">
<path d="M135 10.2534H15V43.7469H135V10.2534Z" fill="white"/>
</mask>
<g mask="url(#mask0_87_29)">
<path d="M33.4619 43.5141H48.2309V28.7451H33.4619V43.5141ZM37.1549 32.4366H44.5394V39.8211H37.1534L37.1549 32.4366Z" fill="black"/>
<path d="M18.693 10.2681H15V25.037H18.693V10.2681Z" fill="black"/>
<path d="M29.7701 10.2681H26.0771V25.037H29.7701V10.2681Z" fill="black"/>
<path d="M24.2311 10.2681H20.5381V25.037H24.2311V10.2681Z" fill="black"/>
<path d="M22.3845 28.3237C20.924 28.3237 19.4963 28.7568 18.2819 29.5682C17.0675 30.3797 16.121 31.533 15.5621 32.8823C15.0032 34.2316 14.857 35.7164 15.1419 37.1489C15.4268 38.5813 16.1301 39.8971 17.1629 40.9299C18.1956 41.9626 19.5114 42.6659 20.9439 42.9508C22.3763 43.2358 23.8611 43.0895 25.2104 42.5306C26.5598 41.9717 27.7131 41.0252 28.5245 39.8108C29.3359 38.5965 29.769 37.1687 29.769 35.7082C29.769 33.7497 28.991 31.8715 27.6061 30.4866C26.2213 29.1017 24.343 28.3237 22.3845 28.3237ZM22.3845 39.4012C21.6541 39.4012 20.9401 39.1846 20.3328 38.7788C19.7255 38.3731 19.2521 37.7963 18.9726 37.1215C18.6931 36.4467 18.62 35.7041 18.7625 34.9878C18.905 34.2714 19.2567 33.6134 19.7732 33.0969C20.2896 32.5804 20.9477 32.2287 21.664 32.0862C22.3804 31.9437 23.123 32.0168 23.7978 32.2963C24.4726 32.5759 25.0493 33.0492 25.4551 33.6565C25.8609 34.2638 26.0775 34.9778 26.0775 35.7082C26.0775 36.6877 25.6884 37.627 24.9958 38.3196C24.3033 39.0121 23.364 39.4012 22.3845 39.4012Z" fill="black"/>
<path d="M33.4619 25.0541L48.2309 10.2837H33.4619L48.2309 25.0541H33.4619Z" fill="black"/>
<path d="M58.9767 25.0806V23.0991H59.2017L60.2517 25.0806H61.0812C65.3922 25.0806 68.9562 23.8431 68.9562 17.6706C68.9517 11.5281 65.4282 10.2876 61.0707 10.2876H55.6152V25.0806H58.9767ZM61.0767 13.2306C63.7002 13.2306 65.5992 13.7241 65.5992 17.6766C65.5992 21.5766 63.7032 22.1466 61.0797 22.1481H58.9797V13.2306H61.0767Z" fill="black"/>
<path d="M72.2776 17.0995L72.9556 15.7765H73.1806V22.1364H70.6006V25.0764H79.0471V22.1364H76.4146V15.8545C76.4146 15.6084 76.3661 15.3648 76.272 15.1375C76.1778 14.9102 76.0398 14.7037 75.8658 14.5297C75.6919 14.3557 75.4853 14.2177 75.258 14.1236C75.0307 14.0294 74.7871 13.981 74.5411 13.981H70.6006V17.0995H72.2776Z" fill="black"/>
<path d="M74.5228 13.2639C75.7603 13.2639 76.5373 12.7359 76.5373 11.7639C76.5373 10.7919 75.7603 10.2534 74.5213 10.2534C73.2823 10.2534 72.5488 10.7994 72.5488 11.7534C72.5488 12.7074 73.2853 13.2654 74.5228 13.2639Z" fill="black"/>
<path d="M91.8342 13.9806C90.8907 13.9806 89.7987 14.2941 89.1702 15.1116C88.0572 14.2941 86.5887 13.8276 84.9702 13.8276C81.6342 13.8276 78.9912 15.3276 78.9912 18.1146C78.9912 21.5976 83.0847 22.3551 86.9652 20.9646V21.2646C86.9652 21.2646 85.9617 22.6281 80.7972 22.1361V25.0821H88.2462C88.3457 25.0821 88.4411 25.1216 88.5114 25.1919C88.5817 25.2623 88.6212 25.3576 88.6212 25.4571V27.6441H91.5672V25.8831C91.5664 25.1863 91.3714 24.5035 91.0042 23.9114C90.6369 23.3192 90.112 22.8411 89.4882 22.5306C90.0857 22.0525 90.5645 21.4429 90.8874 20.7492C91.2104 20.0555 91.3686 19.2966 91.3497 18.5316C91.3497 18.2031 91.3497 17.7816 91.3497 17.4726C91.3497 17.4235 91.3594 17.3748 91.3783 17.3294C91.3972 17.2839 91.4248 17.2427 91.4596 17.208C91.4945 17.1733 91.5358 17.1458 91.5813 17.1271C91.6268 17.1085 91.6755 17.0989 91.7247 17.0991H92.7552V13.9806H91.8342ZM85.1847 19.5786C83.1702 19.5786 82.3527 19.0761 82.3512 18.1731C82.3497 17.2701 83.1687 16.7676 85.1832 16.7661C87.1977 16.7646 87.9957 17.2896 87.9957 18.1701C87.9957 19.0506 87.1992 19.5771 85.1847 19.5786Z" fill="black"/>
<path d="M99.8578 22.1364V15.8545C99.8578 15.3576 99.6604 14.881 99.3091 14.5297C98.9577 14.1783 98.4812 13.981 97.9843 13.981H94.0498V17.0995H95.7268L96.4048 15.7765H96.6298V22.1364H94.0498V25.0764H102.496V22.1364H99.8578Z" fill="black"/>
<path d="M127.855 13.4232L128.533 12.1002H128.758V22.1187H126.178V25.0572H134.625V22.1157H131.991V12.1752C131.991 11.9292 131.942 11.6856 131.848 11.4584C131.753 11.2312 131.615 11.0247 131.441 10.8509C131.267 10.6771 131.06 10.5392 130.833 10.4453C130.605 10.3513 130.362 10.303 130.116 10.3032H126.177V13.4232H127.855Z" fill="black"/>
<path d="M97.9665 13.2639C99.204 13.2639 99.981 12.7359 99.981 11.7639C99.981 10.7919 99.2025 10.2534 97.965 10.2534C96.7275 10.2534 96 10.7994 96 11.7534C96 12.7074 96.7275 13.2654 97.9665 13.2639Z" fill="black"/>
<path d="M105.82 16.9059V17.1309L104.488 17.8089V21.3144C104.488 22.3089 104.883 23.2628 105.587 23.966C106.29 24.6693 107.244 25.0644 108.238 25.0644H111.625V22.1364H108.094C107.995 22.1364 107.899 22.0969 107.829 22.0265C107.759 21.9562 107.719 21.8608 107.719 21.7614V16.9044H111.619V13.9659H107.719V11.7534H105.15L104.488 13.9629H101.85V16.9059H105.82Z" fill="black"/>
<path d="M113.058 22.1649C113.058 23.2554 113.625 25.2699 116.92 25.2684C119.878 25.2684 120.249 23.7774 120.648 22.0149H120.873V23.2029C120.873 23.4492 120.921 23.6931 121.016 23.9206C121.11 24.1481 121.248 24.3547 121.422 24.5287C121.597 24.7027 121.804 24.8407 122.031 24.9347C122.259 25.0286 122.503 25.0768 122.749 25.0764H125.299V22.1364H124.365C124.265 22.1364 124.17 22.0969 124.099 22.0266C124.029 21.9563 123.99 21.8609 123.99 21.7614V18.664C123.989 17.4217 123.495 16.2305 122.616 15.3524C121.737 14.4742 120.546 13.981 119.304 13.981H118.005C115.623 13.981 113.667 15.538 113.667 17.854H116.683V17.1535C116.683 17.054 116.723 16.9586 116.793 16.8883C116.863 16.818 116.959 16.7785 117.058 16.7785H118.885C119.328 16.779 119.757 16.9369 120.094 17.2239C120.432 17.511 120.657 17.9086 120.729 18.346L117.3 18.8275C114.15 19.27 113.056 20.3394 113.058 22.1649ZM120.646 20.2389C120.646 21.5394 119.415 22.3299 117.568 22.3314C117.003 22.3314 116.415 22.1424 116.415 21.5349C116.415 20.9274 116.919 20.7849 117.925 20.6349L120.646 20.2389Z" fill="black"/>
<path d="M64.4232 35.9679V35.5374C66.1872 35.5374 67.9722 35.0424 67.9722 32.3664C67.9722 29.4474 65.9757 28.7334 61.8597 28.7349H55.6152V43.5414H58.9707V41.5614H59.1957L60.2457 43.5429H62.1147C65.9787 43.5429 69.0657 42.9729 69.0642 39.6129C69.0642 36.4614 66.8757 35.9679 64.4232 35.9679ZM58.9767 31.6764H62.2767C63.6417 31.6764 64.6077 31.6764 64.6077 33.0264C64.6077 34.3764 63.6417 34.3764 62.2767 34.3764H58.9767V31.6764ZM62.5332 40.6014H58.9797V37.3014H62.5332C64.5282 37.3014 65.7042 37.3014 65.7057 38.9589C65.7072 40.6164 64.5297 40.5999 62.5332 40.6014Z" fill="black"/>
<path d="M116.124 34.2988V43.5178H119.355V34.2178H119.58L120.258 35.5408H123.879V32.4253H117.998C117.751 32.4253 117.508 32.4738 117.281 32.568C117.053 32.6621 116.847 32.8001 116.673 32.9741C116.499 33.1481 116.361 33.3546 116.267 33.5819C116.172 33.8092 116.124 34.0528 116.124 34.2988Z" fill="black"/>
<path d="M99.8578 40.5899V30.6494C99.8578 30.1526 99.6604 29.676 99.3091 29.3247C98.9577 28.9733 98.4812 28.7759 97.9843 28.7759H94.0498V31.8944H95.7268L96.4048 30.5714H96.6298V40.5899H94.0498V43.5269H102.496V40.5899H99.8578Z" fill="black"/>
<path d="M89.2293 40.6046C89.1298 40.6046 89.0344 40.5651 88.9641 40.4948C88.8938 40.4244 88.8543 40.329 88.8543 40.2296V35.3726H92.7543V32.4341H88.8543V30.2261H86.2833L85.6218 32.4356H82.9893V35.3726H86.9538V35.6036L85.6218 36.2816V39.7871C85.6218 40.7816 86.0168 41.7355 86.7201 42.4387C87.4234 43.142 88.3772 43.5371 89.3718 43.5371H92.7588V40.6121L89.2293 40.6046Z" fill="black"/>
<path d="M128.237 35.7444C128.237 35.3319 128.588 35.0469 129.272 35.0469H130.407C130.925 35.0469 131.571 35.4669 131.571 35.9844V36.1254H134.588C134.588 33.8094 132.77 32.2524 130.388 32.2524H129.218C127.175 32.2524 125.027 33.3759 125.027 35.4699C125.027 40.0209 131.712 38.6994 131.712 40.2549C131.712 40.6824 131.235 40.9299 130.286 40.9299H129.281C128.481 40.9299 127.883 40.5099 127.883 39.9924V39.8514H124.863C124.863 41.9814 126.243 43.7244 129.513 43.7244H130.553C133.527 43.7244 135.002 42.5409 135.002 40.5294C135 35.9619 128.237 37.6239 128.237 35.7444Z" fill="black"/>
<path d="M81.9721 40.5895C81.8726 40.5895 81.7772 40.55 81.7069 40.4796C81.6366 40.4093 81.5971 40.3139 81.5971 40.2145V32.437H78.2491V36.2035C78.2491 39.034 77.6371 40.8115 76.0261 40.8115C74.3521 40.8115 73.9606 39.3025 73.9606 37.1125V32.437H70.6006V38.665C70.6006 41.941 72.2626 43.7455 74.9731 43.7455C76.8181 43.7455 77.8411 42.3565 78.2611 40.4665H78.3751V41.6545C78.3749 41.9008 78.4232 42.1447 78.5174 42.3722C78.6116 42.5998 78.7497 42.8066 78.9238 42.9807C79.098 43.1549 79.3047 43.293 79.5323 43.3871C79.7599 43.4813 80.0038 43.5297 80.2501 43.5295H82.9051V40.588L81.9721 40.5895Z" fill="black"/>
<path d="M109.099 40.9392C107.188 40.9392 106.305 39.9687 106.305 38.8557H114.349V37.5882C114.349 34.5447 112.263 32.2827 108.847 32.2827C105.349 32.2827 103.147 34.7277 103.156 38.0892C103.156 41.0892 105.16 43.7367 109.234 43.7367C112.705 43.7367 114.351 41.7207 114.351 39.8637H111.334C111.334 39.8637 111.124 40.9392 109.099 40.9392ZM108.849 35.0037C110.718 35.0037 111.334 36.3537 111.334 37.1517H106.305C106.305 36.3627 106.978 35.0112 108.849 35.0037Z" fill="black"/>
</g>
</g>
<defs>
<clipPath id="clip0_87_29">
<rect width="120" height="34" fill="white" transform="translate(15 10)"/>
</clipPath>
</defs>
</svg>
