<svg width="120" height="34" viewBox="0 0 120 34" fill="none" xmlns="http://www.w3.org/2000/svg">
<g clip-path="url(#clip0_134_3210)">
<path d="M18.4619 33.5141H33.2309V18.7451H18.4619V33.5141ZM22.1549 22.4366H29.5394V29.8211H22.1534L22.1549 22.4366Z" fill="#000"/>
<path d="M3.693 0.267822H0V15.0368H3.693V0.267822Z" fill="#000"/>
<path d="M14.7701 0.267822H11.0771V15.0368H14.7701V0.267822Z" fill="#000"/>
<path d="M9.23109 0.267822H5.53809V15.0368H9.23109V0.267822Z" fill="#000"/>
<path d="M7.3845 18.3237C5.92399 18.3237 4.49627 18.7568 3.2819 19.5682C2.06752 20.3797 1.12103 21.533 0.562115 22.8823C0.00319959 24.2316 -0.143038 25.7164 0.141894 27.1489C0.426827 28.5813 1.13013 29.8971 2.16287 30.9299C3.19561 31.9626 4.51141 32.6659 5.94386 32.9508C7.37631 33.2358 8.86109 33.0895 10.2104 32.5306C11.5598 31.9717 12.7131 31.0252 13.5245 29.8108C14.3359 28.5965 14.769 27.1687 14.769 25.7082C14.769 23.7497 13.991 21.8715 12.6061 20.4866C11.2213 19.1017 9.34299 18.3237 7.3845 18.3237ZM7.3845 29.4012C6.6541 29.4012 5.94009 29.1846 5.33278 28.7788C4.72547 28.3731 4.25213 27.7963 3.97262 27.1215C3.6931 26.4467 3.61997 25.7041 3.76246 24.9878C3.90496 24.2714 4.25668 23.6134 4.77316 23.0969C5.28963 22.5804 5.94766 22.2287 6.66404 22.0862C7.38041 21.9437 8.12295 22.0168 8.79775 22.2963C9.47256 22.5759 10.0493 23.0492 10.4551 23.6565C10.8609 24.2638 11.0775 24.9778 11.0775 25.7082C11.0775 26.6877 10.6884 27.627 9.99585 28.3196C9.30328 29.0121 8.36395 29.4012 7.3845 29.4012Z" fill="#000"/>
<path d="M18.4619 15.0539L33.2309 0.283447H18.4619L33.2309 15.0539H18.4619Z" fill="#000"/>
<path d="M43.9767 15.0804V13.0989H44.2017L45.2517 15.0804H46.0812C50.3922 15.0804 53.9562 13.8429 53.9562 7.67035C53.9517 1.52785 50.4282 0.287354 46.0707 0.287354H40.6152V15.0804H43.9767ZM46.0767 3.23035C48.7002 3.23035 50.5992 3.72385 50.5992 7.67635C50.5992 11.5764 48.7032 12.1464 46.0797 12.1479H43.9797V3.23035H46.0767Z" fill="#000"/>
<path d="M57.2776 7.09921L57.9556 5.77621H58.1806V12.1362H55.6006V15.0762H64.0471V12.1362H61.4146V5.85421C61.4146 5.60818 61.3661 5.36456 61.272 5.13726C61.1778 4.90995 61.0398 4.70342 60.8658 4.52945C60.6919 4.35548 60.4853 4.21748 60.258 4.12332C60.0307 4.02917 59.7871 3.98071 59.5411 3.98071H55.6006V7.09921H57.2776Z" fill="#000"/>
<path d="M59.5228 3.26367C60.7603 3.26367 61.5373 2.73567 61.5373 1.76367C61.5373 0.791674 60.7603 0.253174 59.5213 0.253174C58.2823 0.253174 57.5488 0.799174 57.5488 1.75317C57.5488 2.70717 58.2853 3.26517 59.5228 3.26367Z" fill="#000"/>
<path d="M76.8342 3.98039C75.8907 3.98039 74.7987 4.29389 74.1702 5.11139C73.0572 4.29389 71.5887 3.82739 69.9702 3.82739C66.6342 3.82739 63.9912 5.32739 63.9912 8.11439C63.9912 11.5974 68.0847 12.3549 71.9652 10.9644V11.2644C71.9652 11.2644 70.9617 12.6279 65.7972 12.1359V15.0819H73.2462C73.3457 15.0819 73.4411 15.1214 73.5114 15.1917C73.5817 15.2621 73.6212 15.3574 73.6212 15.4569V17.6439H76.5672V15.8829C76.5664 15.1861 76.3714 14.5033 76.0042 13.9112C75.6369 13.319 75.112 12.8409 74.4882 12.5304C75.0857 12.0523 75.5645 11.4427 75.8874 10.749C76.2104 10.0553 76.3686 9.29633 76.3497 8.53139C76.3497 8.20289 76.3497 7.78139 76.3497 7.47239C76.3497 7.42322 76.3594 7.37453 76.3783 7.32911C76.3972 7.2837 76.4248 7.24246 76.4596 7.20776C76.4945 7.17305 76.5358 7.14557 76.5813 7.12689C76.6268 7.10821 76.6755 7.0987 76.7247 7.09889H77.7552V3.98039H76.8342ZM70.1847 9.57839C68.1702 9.57839 67.3527 9.07589 67.3512 8.17289C67.3497 7.26989 68.1687 6.76739 70.1832 6.76589C72.1977 6.76439 72.9957 7.28939 72.9957 8.16989C72.9957 9.05039 72.1992 9.57689 70.1847 9.57839Z" fill="#000"/>
<path d="M84.8578 12.1362V5.85421C84.8578 5.35733 84.6604 4.8808 84.3091 4.52945C83.9577 4.1781 83.4812 3.98071 82.9843 3.98071H79.0498V7.09921H80.7268L81.4048 5.77621H81.6298V12.1362H79.0498V15.0762H87.4963V12.1362H84.8578Z" fill="#000"/>
<path d="M112.855 3.42298L113.533 2.09998H113.758V12.1185H111.178V15.057H119.625V12.1155H116.991V2.17498C116.991 1.92895 116.942 1.68536 116.848 1.45814C116.753 1.23091 116.615 1.02448 116.441 0.850654C116.267 0.676822 116.06 0.538987 115.833 0.445017C115.605 0.351046 115.362 0.302782 115.116 0.302979H111.177V3.42298H112.855Z" fill="#000"/>
<path d="M82.9665 3.26367C84.204 3.26367 84.981 2.73567 84.981 1.76367C84.981 0.791674 84.2025 0.253174 82.965 0.253174C81.7275 0.253174 81 0.799174 81 1.75317C81 2.70717 81.7275 3.26517 82.9665 3.26367Z" fill="#000"/>
<path d="M90.8201 6.90567V7.13067L89.4881 7.80867V11.3142C89.4881 12.3087 89.8832 13.2626 90.5865 13.9658C91.2897 14.6691 92.2436 15.0642 93.2381 15.0642H96.6251V12.1362H93.0941C92.9947 12.1362 92.8993 12.0967 92.8289 12.0263C92.7586 11.956 92.7191 11.8606 92.7191 11.7612V6.90417H96.6191V3.96567H92.7191V1.75317H90.1496L89.4881 3.96267H86.8496V6.90567H90.8201Z" fill="#000"/>
<path d="M98.0576 12.1647C98.0576 13.2552 98.6246 15.2697 101.92 15.2682C104.878 15.2682 105.249 13.7772 105.648 12.0147H105.873V13.2027C105.873 13.449 105.921 13.6929 106.016 13.9204C106.11 14.1479 106.248 14.3545 106.422 14.5285C106.597 14.7025 106.804 14.8405 107.031 14.9345C107.259 15.0284 107.503 15.0766 107.749 15.0762H110.299V12.1362H109.365C109.265 12.1362 109.17 12.0967 109.099 12.0264C109.029 11.9561 108.99 11.8607 108.99 11.7612V8.66371C108.989 7.42143 108.495 6.2303 107.616 5.35215C106.737 4.474 105.546 3.98071 104.304 3.98071H103.005C100.623 3.98071 98.6666 5.53771 98.6666 7.85371H101.683V7.15321C101.683 7.05376 101.723 6.95837 101.793 6.88805C101.863 6.81772 101.959 6.77821 102.058 6.77821H103.885C104.328 6.77876 104.757 6.93663 105.094 7.2237C105.432 7.51078 105.657 7.9084 105.729 8.34571L102.3 8.82721C99.1496 9.26971 98.0561 10.3392 98.0576 12.1647ZM105.646 10.2387C105.646 11.5392 104.415 12.3297 102.568 12.3312C102.003 12.3312 101.415 12.1422 101.415 11.5347C101.415 10.9272 101.919 10.7847 102.925 10.6347L105.646 10.2387Z" fill="#000"/>
<path d="M49.4232 25.9676V25.5371C51.1872 25.5371 52.9722 25.0421 52.9722 22.3661C52.9722 19.4471 50.9757 18.7331 46.8597 18.7346H40.6152V33.5411H43.9707V31.5611H44.1957L45.2457 33.5426H47.1147C50.9787 33.5426 54.0657 32.9726 54.0642 29.6126C54.0642 26.4611 51.8757 25.9676 49.4232 25.9676ZM43.9767 21.6761H47.2767C48.6417 21.6761 49.6077 21.6761 49.6077 23.0261C49.6077 24.3761 48.6417 24.3761 47.2767 24.3761H43.9767V21.6761ZM47.5332 30.6011H43.9797V27.3011H47.5332C49.5282 27.3011 50.7042 27.3011 50.7057 28.9586C50.7072 30.6161 49.5297 30.5996 47.5332 30.6011Z" fill="#000"/>
<path d="M101.124 24.2985V33.5175H104.355V24.2175H104.58L105.258 25.5405H108.879V22.425H102.998C102.751 22.425 102.508 22.4735 102.281 22.5677C102.053 22.6618 101.847 22.7998 101.673 22.9738C101.499 23.1478 101.361 23.3543 101.267 23.5816C101.172 23.8089 101.124 24.0525 101.124 24.2985Z" fill="#000"/>
<path d="M84.8578 30.5896V20.6491C84.8578 20.1523 84.6604 19.6757 84.3091 19.3244C83.9577 18.973 83.4812 18.7756 82.9843 18.7756H79.0498V21.8941H80.7268L81.4048 20.5711H81.6298V30.5896H79.0498V33.5266H87.4963V30.5896H84.8578Z" fill="#000"/>
<path d="M74.2293 30.6041C74.1298 30.6041 74.0344 30.5646 73.9641 30.4943C73.8938 30.4239 73.8543 30.3285 73.8543 30.2291V25.3721H77.7543V22.4336H73.8543V20.2256H71.2833L70.6218 22.4351H67.9893V25.3721H71.9538V25.6031L70.6218 26.2811V29.7866C70.6218 30.7811 71.0168 31.735 71.7201 32.4382C72.4234 33.1415 73.3772 33.5366 74.3718 33.5366H77.7588V30.6116L74.2293 30.6041Z" fill="#000"/>
<path d="M113.237 25.7442C113.237 25.3317 113.588 25.0467 114.272 25.0467H115.407C115.925 25.0467 116.571 25.4667 116.571 25.9842V26.1252H119.588C119.588 23.8092 117.77 22.2522 115.388 22.2522H114.218C112.175 22.2522 110.027 23.3757 110.027 25.4697C110.027 30.0207 116.712 28.6992 116.712 30.2547C116.712 30.6822 116.235 30.9297 115.286 30.9297H114.281C113.481 30.9297 112.883 30.5097 112.883 29.9922V29.8512H109.863C109.863 31.9812 111.243 33.7242 114.513 33.7242H115.553C118.527 33.7242 120.002 32.5407 120.002 30.5292C120 25.9617 113.237 27.6237 113.237 25.7442Z" fill="#000"/>
<path d="M66.9721 30.5893C66.8726 30.5893 66.7772 30.5498 66.7069 30.4794C66.6366 30.4091 66.5971 30.3137 66.5971 30.2143V22.4368H63.2491V26.2033C63.2491 29.0338 62.6371 30.8113 61.0261 30.8113C59.3521 30.8113 58.9606 29.3023 58.9606 27.1123V22.4368H55.6006V28.6648C55.6006 31.9408 57.2626 33.7453 59.9731 33.7453C61.8181 33.7453 62.8411 32.3563 63.2611 30.4663H63.3751V31.6543C63.3749 31.9006 63.4232 32.1445 63.5174 32.372C63.6116 32.5996 63.7497 32.8064 63.9238 32.9805C64.098 33.1547 64.3047 33.2928 64.5323 33.3869C64.7599 33.4811 65.0038 33.5295 65.2501 33.5293H67.9051V30.5878L66.9721 30.5893Z" fill="#000"/>
<path d="M94.0993 30.939C92.1883 30.939 91.3048 29.9685 91.3048 28.8555H99.3493V27.588C99.3493 24.5445 97.2628 22.2825 93.8473 22.2825C90.3493 22.2825 88.1473 24.7275 88.1563 28.089C88.1563 31.089 90.1603 33.7365 94.2343 33.7365C97.7053 33.7365 99.3508 31.7205 99.3508 29.8635H96.3343C96.3343 29.8635 96.1243 30.939 94.0993 30.939ZM93.8488 25.0035C95.7178 25.0035 96.3343 26.3535 96.3343 27.1515H91.3048C91.3048 26.3625 91.9783 25.011 93.8488 25.0035Z" fill="#000"/>
</g>
<defs>
<clipPath id="clip0_134_3210">
<rect width="120" height="33.4935" fill="white" transform="translate(0 0.253174)"/>
</clipPath>
</defs>
</svg>
